<?xml version="1.0" encoding="UTF-8" standalone="no"?>
<svg
   width="980.00165"
   height="264.00488"
   viewBox="0 0 259.29211 69.851292"
   version="1.1"
   id="svg8"
   style="enable-background:new"
   xmlns="http://www.w3.org/2000/svg"
   xmlns:svg="http://www.w3.org/2000/svg"
   xmlns:rdf="http://www.w3.org/1999/02/22-rdf-syntax-ns#"
   xmlns:cc="http://creativecommons.org/ns#"
   xmlns:dc="http://purl.org/dc/elements/1.1/">
  <defs
     id="defs2" />
  <metadata
     id="metadata5">
    <rdf:RDF>
      <cc:Work
         rdf:about="">
        <dc:format>image/svg+xml</dc:format>
        <dc:type
           rdf:resource="http://purl.org/dc/dcmitype/StillImage" />
        <dc:title />
      </cc:Work>
    </rdf:RDF>
  </metadata>
  <g
     id="layer10"
     transform="translate(-150.28362,-4.7612097)"
     style="display:inline">
    <path
       id="path9933"
       style="color:#000000;font-style:normal;font-variant:normal;font-weight:normal;font-stretch:normal;font-size:medium;line-height:normal;font-family:sans-serif;font-variant-ligatures:normal;font-variant-position:normal;font-variant-caps:normal;font-variant-numeric:normal;font-variant-alternates:normal;font-variant-east-asian:normal;font-feature-settings:normal;font-variation-settings:normal;text-indent:0;text-align:start;text-decoration:none;text-decoration-line:none;text-decoration-style:solid;text-decoration-color:#000000;letter-spacing:normal;word-spacing:normal;text-transform:none;writing-mode:lr-tb;direction:ltr;text-orientation:mixed;dominant-baseline:auto;baseline-shift:baseline;text-anchor:start;white-space:normal;shape-padding:0;shape-margin:0;inline-size:0;clip-rule:nonzero;display:inline;overflow:visible;visibility:visible;opacity:1;isolation:auto;mix-blend-mode:normal;color-interpolation:sRGB;color-interpolation-filters:linearRGB;solid-color:#000000;solid-opacity:1;vector-effect:none;fill:#1f58ad;fill-opacity:1;fill-rule:evenodd;stroke:none;stroke-width:16;stroke-linecap:butt;stroke-linejoin:miter;stroke-miterlimit:4;stroke-dasharray:none;stroke-dashoffset:0;stroke-opacity:1;color-rendering:auto;image-rendering:auto;shape-rendering:auto;text-rendering:auto;enable-background:new;stop-color:#000000;stop-opacity:1"
       d="m 731.99805,51.001953 v 15.996094 h 41.89257 l 6.49415,-7.994141 -6.49805,-8.001953 z m 47.04297,0 6.49609,8.001953 -6.49219,7.994141 h 11.58594 c 3.75462,-6.87289 9.56977,-12.483911 16.58594,-15.996094 z m 513.74218,0 c 7.0162,3.512183 12.8314,9.123204 16.5859,15.996094 h 6.5235 l 6.4922,-7.994141 -6.4981,-8.001953 z m 28.2578,0 6.4961,8.001953 -6.4922,7.994141 H 1384 V 51.001953 Z"
       transform="scale(0.26458334)" />
    <path
       id="path9903"
       style="color:#000000;font-style:normal;font-variant:normal;font-weight:normal;font-stretch:normal;font-size:medium;line-height:normal;font-family:sans-serif;font-variant-ligatures:normal;font-variant-position:normal;font-variant-caps:normal;font-variant-numeric:normal;font-variant-alternates:normal;font-variant-east-asian:normal;font-feature-settings:normal;font-variation-settings:normal;text-indent:0;text-align:start;text-decoration:none;text-decoration-line:none;text-decoration-style:solid;text-decoration-color:#000000;letter-spacing:normal;word-spacing:normal;text-transform:none;writing-mode:lr-tb;direction:ltr;text-orientation:mixed;dominant-baseline:auto;baseline-shift:baseline;text-anchor:start;white-space:normal;shape-padding:0;shape-margin:0;inline-size:0;clip-rule:nonzero;display:inline;overflow:visible;visibility:visible;opacity:1;isolation:auto;mix-blend-mode:normal;color-interpolation:sRGB;color-interpolation-filters:linearRGB;solid-color:#000000;solid-opacity:1;vector-effect:none;fill:#1f58ad;fill-opacity:1;fill-rule:nonzero;stroke:none;stroke-width:16;stroke-linecap:round;stroke-linejoin:miter;stroke-miterlimit:4;stroke-dasharray:none;stroke-dashoffset:0;stroke-opacity:1;paint-order:normal;color-rendering:auto;image-rendering:auto;shape-rendering:auto;text-rendering:auto;enable-background:new;stop-color:#000000;stop-opacity:1"
       d="m 824.09961,51.001953 c -18.75262,0 -34.09766,15.343086 -34.09766,34.095703 V 104.00391 L 798.02734,97.484375 806,103.96289 V 85.097656 c 0,-10.165394 7.93423,-18.099609 18.09961,-18.099609 h 23.90234 V 51.001953 Z m 191.89839,0 v 15.996094 h 27.8946 L 1050.3867,59 l -6.4961,-7.998047 z m 33.043,0 6.4981,7.998047 -6.4981,7.998047 H 1076 V 51.001953 Z m 194.957,0 v 15.996094 h 31.9024 c 10.1654,0 18.0996,7.934215 18.0996,18.099609 v 14.71875 l 8.0254,6.519534 7.9726,-6.474612 V 85.097656 c 0,-18.752617 -15.345,-34.095703 -34.0976,-34.095703 z m -445.97066,51.642577 -8.02539,6.51758 v 107.74023 c 0,18.75262 15.34504,34.09571 34.09766,34.09571 h 141.9043 v -15.9961 H 824.09961 C 813.93423,235.00195 806,227.06774 806,216.90234 V 109.11914 Z M 1294,104.96875 v 111.93359 c 0,10.1654 -7.9342,18.09961 -18.0996,18.09961 H 1134 v 15.9961 h 141.9004 c 18.7526,0 34.0976,-15.34309 34.0976,-34.09571 V 105.01367 l -7.9726,6.47461 z"
       transform="scale(0.26458334)" />
    <rect
       transform="translate(-25.929167,-64.166674)"
       ry="3.2396758"
       y="118.14168"
       x="283.10419"
       height="20.108334"
       width="41.275002"
       id="rect2122"
       style="display:inline;opacity:1;fill:none;fill-opacity:1;stroke:#1f58ad;stroke-width:1.05833;stroke-linecap:round;stroke-linejoin:miter;stroke-miterlimit:4;stroke-dasharray:none;stroke-dashoffset:0;stroke-opacity:1;paint-order:normal;enable-background:new" />
    <path
       d="m 289.18052,127.35099 q 0.0963,0 0.20002,0.0222 0.11113,0.0222 0.16299,0.0519 0,0.16298 -0.037,0.54081 -0.037,0.37041 -0.0667,0.52599 -0.0741,-0.007 -0.27411,-0.007 -0.46672,0 -0.82973,0.0519 v 2.29658 h -1.26683 v -3.40783 h 1.0594 l 0.14816,0.54822 h 0.007 q 0.21484,-0.28152 0.45932,-0.45191 0.24447,-0.17039 0.43709,-0.17039 z m 2.7633,2.59291 q 0.18521,0 0.68898,-0.037 0.0667,0 0.24447,-0.0148 l 0.11113,0.76306 q -0.57044,0.2667 -1.48167,0.2667 -0.85196,0 -1.31127,-0.42968 -0.45191,-0.42969 -0.45191,-1.29646 0,-0.4445 0.11112,-0.85937 0.11854,-0.41486 0.2667,-0.57785 0.15558,-0.16298 0.57785,-0.28151 0.42228,-0.11854 0.83714,-0.11854 0.66675,0 1.00013,0.23707 0.33337,0.23707 0.43709,0.65934 0.10372,0.41487 0.10372,1.11866 -0.50377,0.0296 -0.98531,0.0296 h -1.05198 q 0,0.23707 0.0963,0.3556 0.10372,0.11854 0.28893,0.15558 0.18521,0.0296 0.51858,0.0296 z m -0.82973,-1.70391 q -0.0444,0.0222 -0.0667,0.19261 -0.0222,0.17039 -0.0296,0.38524 h 0.38523 q 0.3482,0 0.50377,-0.007 0,-0.3556 -0.10372,-0.50377 -0.0963,-0.14817 -0.34078,-0.14817 -0.20002,0 -0.34819,0.0815 z m 4.74874,-0.889 q 0.5334,0 0.84455,0.3556 0.31856,0.34819 0.31856,1.22237 0,0.65193 -0.12594,1.0668 -0.12594,0.40746 -0.28892,0.54081 -0.16299,0.13335 -0.57045,0.21484 -0.40005,0.0815 -0.82973,0.0815 -0.12594,0 -0.42227,-0.0148 v 1.05199 l -1.26683,0.0519 v -4.49686 h 1.03717 l 0.12594,0.52599 q 0.19262,-0.27411 0.48895,-0.43709 0.30374,-0.16298 0.68897,-0.16298 z m -0.29633,2.57809 q 0.0815,-0.0593 0.11853,-0.33337 0.0371,-0.28152 0.0371,-0.5334 0,-0.41487 -0.10372,-0.61489 -0.10372,-0.20003 -0.41487,-0.20003 -0.22225,0 -0.41486,0.0445 v 1.64465 l 0.20743,0.0222 q 0.0963,0.007 0.27411,0.007 0.25188,0 0.29633,-0.037 z m 1.97803,-3.54118 1.26683,-0.0519 v 4.49686 h -1.26683 z m 3.92642,4.445 -0.11853,-0.46672 q -0.34078,0.55562 -0.94827,0.55562 -0.49636,0 -0.81491,-0.27411 -0.31115,-0.28151 -0.31115,-0.78528 0,-0.31115 0.1778,-0.54081 0.18521,-0.23706 0.50376,-0.33337 0.41487,-0.11854 1.28164,-0.13335 0,-0.48895 -0.0444,-0.51859 -0.037,-0.0296 -0.23706,-0.0296 -0.12594,0 -0.34819,0.0148 -0.3556,0.0148 -0.96309,0.0815 -0.0593,-0.40005 -0.0889,-0.85937 0.39264,-0.0815 0.82233,-0.13335 0.42968,-0.0593 0.77046,-0.0593 0.59267,0 0.889,0.20002 0.29634,0.19262 0.38524,0.51118 0.0889,0.31855 0.0815,0.8075 l -0.007,1.08903 0.0222,0.87418 z m -0.63711,-0.74083 q 0.19261,0 0.40745,-0.0741 v -0.54821 h -0.0593 q -0.54822,0 -0.60749,0.0593 -0.037,0.037 -0.0593,0.11113 -0.0148,0.0741 -0.0148,0.14076 0,0.1778 0.0815,0.24447 0.0815,0.0667 0.25189,0.0667 z m 5.54142,-2.45216 q 0.0667,0.0815 0.0963,0.40746 0.037,0.32597 0.037,0.99272 v 1.79281 h -1.26682 v -1.778 -0.30374 q 0,-0.23707 -0.037,-0.29633 -0.0593,-0.0741 -0.27411,-0.0741 -0.10372,0 -0.15558,0.007 -0.20743,0.007 -0.42968,0.0963 v 2.34844 h -1.26683 v -3.40783 h 1.02976 l 0.14076,0.57044 q 0.5334,-0.64452 1.27423,-0.64452 0.2667,0 0.49636,0.0741 0.23707,0.0741 0.3556,0.21484 z m 4.01531,0 q 0.0667,0.0815 0.0963,0.40746 0.037,0.32597 0.037,0.99272 v 1.79281 h -1.26682 v -1.778 -0.30374 q 0,-0.23707 -0.037,-0.29633 -0.0593,-0.0741 -0.27411,-0.0741 -0.10372,0 -0.15558,0.007 -0.20743,0.007 -0.42968,0.0963 v 2.34844 h -1.26682 v -3.40783 h 1.02975 l 0.14076,0.57044 q 0.5334,-0.64452 1.27424,-0.64452 0.2667,0 0.49635,0.0741 0.23707,0.0741 0.3556,0.21484 z m 1.37795,-0.63712 q -0.25188,0 -0.43709,-0.17039 -0.1778,-0.17039 -0.1778,-0.40746 0,-0.23706 0.1778,-0.40745 0.18521,-0.1704 0.43709,-0.1704 0.25189,0 0.42969,0.1704 0.1778,0.17039 0.1778,0.40745 0,0.23707 -0.1778,0.40746 -0.1778,0.17039 -0.42969,0.17039 z m -0.63711,0.42228 h 1.26682 v 3.40783 h -1.26682 z m 5.19324,0.21484 q 0.0667,0.0815 0.0963,0.40746 0.037,0.32597 0.037,0.99272 v 1.79281 h -1.26682 v -1.778 -0.30374 q 0,-0.23707 -0.037,-0.29633 -0.0593,-0.0741 -0.27411,-0.0741 -0.10372,0 -0.15558,0.007 -0.20743,0.007 -0.42968,0.0963 v 2.34844 h -1.26682 v -3.40783 h 1.02975 l 0.14076,0.57044 q 0.5334,-0.64452 1.27423,-0.64452 0.2667,0 0.49636,0.0741 0.23707,0.0741 0.3556,0.21484 z m 2.49661,-0.27411 q 0.34819,0 0.72601,0.0519 0.37783,0.0444 0.88159,0.12594 v 2.94852 q 0,1.05939 -0.70379,1.64465 -0.0889,0.0741 -0.40005,0.12594 -0.31115,0.0519 -0.70379,0.0519 -0.85196,0 -1.34831,-0.22225 -0.007,-0.16299 0.0222,-0.42969 0.037,-0.2667 0.0741,-0.42227 0.5334,0.0815 1.04458,0.0815 0.25929,0 0.43709,-0.0296 0.18521,-0.0222 0.22966,-0.0741 0.0593,-0.0593 0.0889,-0.4445 0.007,-0.10371 0.007,-0.30374 v -0.18521 q -0.18521,0.27411 -0.47414,0.39265 -0.28892,0.11853 -0.51858,0.11853 -0.6223,0 -0.94086,-0.40746 -0.31856,-0.40746 -0.31856,-1.19274 0,-0.51858 0.14076,-0.97049 0.14817,-0.45932 0.40005,-0.63712 0.16299,-0.11112 0.52599,-0.16298 0.37042,-0.0593 0.82974,-0.0593 z m -0.15558,2.50402 q 0.27411,0 0.49636,-0.0889 v -1.54834 q -0.0815,-0.0148 -0.24448,-0.0296 -0.0741,-0.007 -0.22225,-0.007 -0.22965,0 -0.28892,0.0445 -0.0815,0.0593 -0.13335,0.33337 -0.0444,0.2667 -0.0444,0.56303 0,0.40746 0.0889,0.57044 0.0963,0.16299 0.34819,0.16299 z"
       id="text2126"
       style="font-size:7.40833px;line-height:1000%;font-family:Lalezar;-inkscape-font-specification:'Lalezar, Normal';text-align:center;letter-spacing:0px;word-spacing:0px;baseline-shift:baseline;text-anchor:middle;fill:#1f437a;stroke-width:0.264583px"
       transform="translate(-25.929167,-64.166674)"
       aria-label="replanning" />
    <rect
       style="display:inline;opacity:1;fill:none;fill-opacity:1;stroke:#1f58ad;stroke-width:1.05833;stroke-linecap:round;stroke-linejoin:miter;stroke-miterlimit:4;stroke-dasharray:none;stroke-dashoffset:0;stroke-opacity:1;paint-order:normal;enable-background:new"
       id="rect2130"
       width="41.275002"
       height="20.108334"
       x="286.27917"
       y="5.2919135"
       ry="3.2396758" />
    <path
       d="m 324.34842,80.994218 q 0,0.659341 -0.42227,0.948266 -0.41487,0.288925 -1.18534,0.288925 -0.54081,0 -1.2446,-0.155575 0.0148,-0.148166 0.0667,-0.422275 0.0593,-0.281516 0.0963,-0.429683 0.2667,0.04445 0.59266,0.07408 0.32597,0.02222 0.55563,0.02222 0.20002,0 0.24447,-0.02222 0.007,-0.0074 0.0148,-0.03704 0.0148,-0.03704 0.0148,-0.07408 0,-0.148167 -0.18521,-0.200025 -0.0593,-0.01482 -0.45191,-0.125942 -0.39264,-0.111125 -0.64452,-0.40005 -0.24448,-0.296333 -0.24448,-0.733424 0,-0.229659 0.10372,-0.511175 0.10371,-0.281517 0.22225,-0.3556 0.0889,-0.05927 0.42968,-0.118533 0.34078,-0.06668 0.62971,-0.06668 0.61489,0 1.23719,0.0889 0,0.13335 -0.037,0.451908 -0.037,0.31115 -0.0667,0.392641 -0.62971,-0.08149 -1.01494,-0.08149 -0.20002,0 -0.25929,0.02223 -0.0148,0.0074 -0.0296,0.04445 -0.0148,0.02963 -0.0148,0.08149 0,0.103717 0.0667,0.148167 0.0667,0.05186 0.3482,0.125942 0.33337,0.09631 0.57044,0.200025 0.24447,0.103716 0.42227,0.311149 0.18521,0.207434 0.18521,0.5334 z m 3.28931,1.051983 q -0.60008,0.200025 -1.34091,0.200025 -0.82974,0 -1.2446,-0.414867 -0.40746,-0.422274 -0.40746,-1.311274 0,-0.437091 0.11853,-0.859366 0.11854,-0.429683 0.25189,-0.57785 0.15557,-0.170392 0.60748,-0.288925 0.45932,-0.118533 0.94827,-0.118533 0.51117,0 1.02975,0.0889 -0.0148,0.185208 -0.0519,0.437091 -0.0296,0.244475 -0.0667,0.437092 -0.45932,-0.02963 -0.86677,-0.02963 -0.40005,0 -0.51118,0.04445 -0.0593,0.02222 -0.11112,0.303742 -0.0445,0.281516 -0.0445,0.525991 0,0.325967 0.0889,0.503767 0.0963,0.170391 0.29633,0.237066 0.20002,0.06667 0.54081,0.06667 0.14816,0 0.65193,-0.02963 z m 2.06692,0.200025 q -0.889,0 -1.3335,-0.414867 -0.43709,-0.422274 -0.43709,-1.326091 0,-0.496358 0.0889,-0.866774 0.0963,-0.377825 0.22966,-0.525992 0.17039,-0.192616 0.6223,-0.318558 0.45931,-0.125941 0.85936,-0.125941 0.95568,0 1.36314,0.407458 0.40746,0.407458 0.40746,1.303866 0,0.963083 -0.4371,1.414991 -0.43709,0.451908 -1.36313,0.451908 z m 0.0222,-0.866775 q 0.28892,0 0.37782,-0.200025 0.0889,-0.207433 0.0889,-0.726016 0,-0.363008 -0.037,-0.555625 -0.037,-0.200025 -0.14076,-0.288925 -0.0963,-0.09631 -0.30374,-0.09631 -0.29633,0 -0.34078,0.05186 -0.0593,0.05186 -0.0963,0.325967 -0.037,0.274108 -0.037,0.570441 0,0.503767 0.0963,0.7112 0.10372,0.207433 0.39265,0.207433 z m 4.37092,-2.711448 q 0.0963,0 0.20002,0.02223 0.11113,0.02222 0.16298,0.05186 0,0.162983 -0.037,0.540808 -0.037,0.370416 -0.0667,0.525991 -0.0741,-0.0074 -0.27411,-0.0074 -0.46673,0 -0.82973,0.05186 v 2.296583 h -1.26683 v -3.407832 h 1.05939 l 0.14817,0.548216 h 0.007 q 0.21484,-0.281516 0.45931,-0.451908 0.24448,-0.170391 0.4371,-0.170391 z m 1.35572,-0.348192 q -0.25188,0 -0.43709,-0.170392 -0.1778,-0.170391 -0.1778,-0.407458 0,-0.237066 0.1778,-0.407458 0.18521,-0.170391 0.43709,-0.170391 0.25188,0 0.42968,0.170391 0.1778,0.170392 0.1778,0.407458 0,0.237067 -0.1778,0.407458 -0.1778,0.170392 -0.42968,0.170392 z m -0.63712,0.422275 h 1.26683 v 3.407832 h -1.26683 z m 5.19325,0.214841 q 0.0667,0.08149 0.0963,0.407459 0.037,0.325966 0.037,0.992716 v 1.792816 h -1.26683 v -1.778 -0.303741 q 0,-0.237067 -0.037,-0.296333 -0.0593,-0.07408 -0.27411,-0.07408 -0.10371,0 -0.15557,0.0074 -0.20744,0.0074 -0.42969,0.09631 v 2.348441 h -1.26682 v -3.407832 h 1.02976 l 0.14076,0.570441 q 0.5334,-0.644524 1.27423,-0.644524 0.2667,0 0.49636,0.07408 0.23706,0.07408 0.3556,0.214841 z m 2.4966,-0.274108 q 0.3482,0 0.72602,0.05186 0.37782,0.04445 0.88159,0.125942 v 2.948515 q 0,1.059392 -0.70379,1.64465 -0.0889,0.07408 -0.40005,0.125941 -0.31115,0.05186 -0.70379,0.05186 -0.85196,0 -1.34832,-0.22225 -0.007,-0.162984 0.0222,-0.429683 0.037,-0.2667 0.0741,-0.422275 0.5334,0.08149 1.04458,0.08149 0.25929,0 0.43709,-0.02963 0.18521,-0.02223 0.22966,-0.07408 0.0593,-0.05927 0.0889,-0.4445 0.007,-0.103717 0.007,-0.303742 v -0.185208 q -0.1852,0.274108 -0.47413,0.392642 -0.28892,0.118533 -0.51858,0.118533 -0.6223,0 -0.94086,-0.407458 -0.31856,-0.407458 -0.31856,-1.192741 0,-0.518583 0.14076,-0.970492 0.14817,-0.459316 0.40005,-0.637116 0.16298,-0.111125 0.52599,-0.162983 0.37042,-0.05927 0.82973,-0.05927 z m -0.15557,2.504016 q 0.27411,0 0.49636,-0.0889 v -1.548341 q -0.0815,-0.01482 -0.24448,-0.02963 -0.0741,-0.0074 -0.22225,-0.0074 -0.22966,0 -0.28892,0.04445 -0.0815,0.05927 -0.13335,0.333375 -0.0444,0.2667 -0.0444,0.563033 0,0.407458 0.0889,0.570441 0.0963,0.162984 0.34819,0.162984 z"
       id="text2134"
       style="font-size:7.40833px;line-height:1000%;font-family:Lalezar;-inkscape-font-specification:'Lalezar, Normal';text-align:center;letter-spacing:0px;word-spacing:0px;baseline-shift:baseline;text-anchor:middle;fill:#1f437a;stroke-width:0.264583px"
       transform="translate(-25.929167,-64.166674)"
       aria-label="scoring" />
    <rect
       ry="3.2396758"
       y="5.2919135"
       x="225.95421"
       height="20.108334"
       width="41.275002"
       id="rect2138"
       style="display:inline;opacity:1;fill:none;fill-opacity:1;stroke:#1f58ad;stroke-width:1.05833;stroke-linecap:round;stroke-linejoin:miter;stroke-miterlimit:4;stroke-dasharray:none;stroke-dashoffset:0;stroke-opacity:1;paint-order:normal;enable-background:new" />
    <path
       d="m 233.45295,17.094214 q 0.18521,0 0.68898,-0.03704 0.0667,0 0.24447,-0.01482 l 0.11113,0.763058 q -0.57044,0.266699 -1.48167,0.266699 -0.85196,0 -1.31127,-0.429683 -0.45191,-0.429683 -0.45191,-1.296457 0,-0.4445 0.11112,-0.859367 0.11854,-0.414866 0.2667,-0.57785 0.15558,-0.162983 0.57785,-0.281516 0.42228,-0.118533 0.83715,-0.118533 0.66675,0 1.00012,0.237066 0.33337,0.237067 0.43709,0.659342 0.10372,0.414866 0.10372,1.118657 -0.50377,0.02963 -0.98531,0.02963 h -1.05198 q 0,0.237066 0.0963,0.3556 0.10371,0.118533 0.28892,0.155575 0.18521,0.02963 0.51858,0.02963 z m -0.82973,-1.703916 q -0.0445,0.02223 -0.0667,0.192617 -0.0222,0.170391 -0.0296,0.385233 h 0.38524 q 0.34819,0 0.50376,-0.0074 0,-0.355599 -0.10371,-0.503766 -0.0963,-0.148167 -0.34079,-0.148167 -0.20002,0 -0.34819,0.08149 z m 3.03001,0.851958 -0.85196,-1.666874 h 1.22979 l 0.61489,1.318682 0.6223,-1.318682 h 1.22237 l -0.84455,1.666874 0.92604,1.740957 h -1.23719 l -0.68897,-1.407582 -0.68898,1.407582 h -1.23719 z m 5.28214,0.851958 q 0.18521,0 0.68897,-0.03704 0.0667,0 0.24448,-0.01482 l 0.11112,0.763058 q -0.57044,0.266699 -1.48166,0.266699 -0.85196,0 -1.31128,-0.429683 -0.45191,-0.429683 -0.45191,-1.296457 0,-0.4445 0.11113,-0.859367 0.11853,-0.414866 0.2667,-0.57785 0.15557,-0.162983 0.57785,-0.281516 0.42227,-0.118533 0.83714,-0.118533 0.66675,0 1.00013,0.237066 0.33337,0.237067 0.43709,0.659342 0.10371,0.414866 0.10371,1.118657 -0.50376,0.02963 -0.9853,0.02963 h -1.05199 q 0,0.237066 0.0963,0.3556 0.10372,0.118533 0.28893,0.155575 0.1852,0.02963 0.51858,0.02963 z m -0.82973,-1.703916 q -0.0444,0.02223 -0.0667,0.192617 -0.0222,0.170391 -0.0296,0.385233 h 0.38523 q 0.34819,0 0.50377,-0.0074 0,-0.355599 -0.10372,-0.503766 -0.0963,-0.148167 -0.34078,-0.148167 -0.20003,0 -0.34819,0.08149 z m 5.27473,2.489199 q -0.60007,0.200025 -1.34091,0.200025 -0.82973,0 -1.2446,-0.414867 -0.40745,-0.422275 -0.40745,-1.311274 0,-0.437092 0.11853,-0.859366 0.11853,-0.429684 0.25188,-0.57785 0.15558,-0.170392 0.60748,-0.288925 0.45932,-0.118533 0.94827,-0.118533 0.51118,0 1.02976,0.0889 -0.0148,0.185208 -0.0519,0.437091 -0.0296,0.244475 -0.0667,0.437092 -0.45932,-0.02963 -0.86678,-0.02963 -0.40005,0 -0.51117,0.04445 -0.0593,0.02223 -0.11113,0.303742 -0.0444,0.281516 -0.0444,0.525991 0,0.325967 0.0889,0.503767 0.0963,0.170391 0.29633,0.237066 0.20003,0.06668 0.54081,0.06668 0.14817,0 0.65194,-0.02963 z m 3.83011,-3.304115 v 3.407831 h -1.02976 l -0.14076,-0.570441 q -0.5334,0.644525 -1.27423,0.644525 -0.2667,0 -0.50377,-0.07408 -0.22965,-0.07408 -0.34819,-0.214841 -0.0667,-0.08149 -0.10371,-0.407458 -0.0296,-0.325967 -0.0296,-0.992717 v -1.792815 h 1.26683 v 1.777999 q 0,0.148166 0.007,0.348191 0.007,0.200025 0.0444,0.251884 0.0519,0.07408 0.29633,0.07408 l 0.11853,-0.0074 q 0.20744,-0.0074 0.42969,-0.09631 v -2.34844 z m 2.17805,2.007657 q 0,0.13335 0.007,0.281517 0.007,0.140758 0.0445,0.1778 0.0519,0.05186 0.36301,0.05186 l 0.25189,-0.0074 q 0.0667,0.3556 0.0667,0.822325 -0.14076,0.05186 -0.41487,0.09631 -0.2667,0.04445 -0.51117,0.04445 -0.51118,0 -0.79269,-0.22225 -0.27411,-0.229658 -0.27411,-0.703791 v -1.822449 h -0.55562 V 14.62724 l 0.55562,-0.05186 0.33337,-0.814917 0.92605,-0.05186 v 0.866775 h 0.78528 v 0.726016 h -0.78528 z m 1.82244,-2.429932 q -0.25188,0 -0.43709,-0.170392 -0.1778,-0.170391 -0.1778,-0.407458 0,-0.237066 0.1778,-0.407458 0.18521,-0.170392 0.43709,-0.170392 0.25189,0 0.42969,0.170392 0.1778,0.170392 0.1778,0.407458 0,0.237067 -0.1778,0.407458 -0.1778,0.170392 -0.42969,0.170392 z m -0.63711,0.422275 h 1.26682 v 3.407831 h -1.26682 z m 3.54118,3.50414 q -0.889,0 -1.3335,-0.414867 -0.43709,-0.422275 -0.43709,-1.326091 0,-0.496358 0.0889,-0.866774 0.0963,-0.377825 0.22966,-0.525992 0.17039,-0.192616 0.6223,-0.318558 0.45932,-0.125942 0.85937,-0.125942 0.95567,0 1.36313,0.407458 0.40746,0.407459 0.40746,1.303867 0,0.963082 -0.43709,1.414991 -0.4371,0.451908 -1.36314,0.451908 z m 0.0222,-0.866775 q 0.28892,0 0.37782,-0.200025 0.0889,-0.207433 0.0889,-0.726016 0,-0.363008 -0.037,-0.555625 -0.037,-0.200025 -0.14076,-0.288925 -0.0963,-0.09631 -0.30374,-0.09631 -0.29633,0 -0.34078,0.05186 -0.0593,0.05186 -0.0963,0.325967 -0.037,0.274108 -0.037,0.570441 0,0.503767 0.0963,0.7112 0.10371,0.207433 0.39264,0.207433 z m 5.55625,-2.422524 q 0.0667,0.08149 0.0963,0.407458 0.037,0.325967 0.037,0.992717 v 1.792815 h -1.26682 v -1.777999 -0.303741 q 0,-0.237067 -0.037,-0.296333 -0.0593,-0.07408 -0.2741,-0.07408 -0.10372,0 -0.15558,0.0074 -0.20743,0.0074 -0.42968,0.09631 v 2.34844 h -1.26683 v -3.407831 h 1.02976 l 0.14076,0.570441 q 0.5334,-0.644525 1.27423,-0.644525 0.2667,0 0.49636,0.07408 0.23707,0.07408 0.3556,0.214841 z"
       id="text2142"
       style="font-size:7.40833px;line-height:1000%;font-family:Lalezar;-inkscape-font-specification:'Lalezar, Normal';text-align:center;letter-spacing:0px;word-spacing:0px;baseline-shift:baseline;text-anchor:middle;fill:#1f437a;stroke-width:0.264583px"
       aria-label="execution" />
    <rect
       style="display:inline;opacity:1;fill:none;fill-opacity:1;stroke:#1f58ad;stroke-width:1.05833;stroke-linecap:round;stroke-linejoin:miter;stroke-miterlimit:4;stroke-dasharray:none;stroke-dashoffset:0;stroke-opacity:1;paint-order:normal;enable-background:new"
       id="rect2146"
       width="41.275002"
       height="20.108334"
       x="150.81279"
       y="5.2919135"
       ry="3.2396758" />
    <path
       style="font-size:7.40833px;line-height:10%;font-family:Lalezar;-inkscape-font-specification:'Lalezar, Normal';text-align:center;letter-spacing:0px;word-spacing:0px;baseline-shift:baseline;text-anchor:middle;fill:#1f437a;stroke-width:0.264583px"
       d="m 161.30459,12.594215 q 0,0.659341 -0.42227,0.948266 -0.41487,0.288925 -1.18534,0.288925 -0.5408,0 -1.2446,-0.155575 0.0148,-0.148167 0.0667,-0.422275 0.0593,-0.281516 0.0963,-0.429683 0.2667,0.04445 0.59266,0.07408 0.32597,0.02222 0.55563,0.02222 0.20002,0 0.24447,-0.02222 0.007,-0.0074 0.0148,-0.03704 0.0148,-0.03704 0.0148,-0.07408 0,-0.148166 -0.18521,-0.200025 -0.0593,-0.01482 -0.45191,-0.125941 -0.39264,-0.111125 -0.64452,-0.40005 -0.24448,-0.296333 -0.24448,-0.733425 0,-0.229658 0.10372,-0.511174 0.10371,-0.281517 0.22225,-0.3556 0.0889,-0.05927 0.42968,-0.118534 0.34078,-0.06668 0.62971,-0.06668 0.61489,0 1.23719,0.0889 0,0.13335 -0.037,0.451909 -0.037,0.311149 -0.0667,0.392641 -0.62971,-0.08149 -1.01494,-0.08149 -0.20002,0 -0.25929,0.02223 -0.0148,0.0074 -0.0296,0.04445 -0.0148,0.02963 -0.0148,0.08149 0,0.103717 0.0667,0.148167 0.0667,0.05186 0.3482,0.125941 0.33337,0.09631 0.57044,0.200025 0.24447,0.103717 0.42227,0.31115 0.18521,0.207433 0.18521,0.5334 z m 3.28931,1.051983 q -0.60008,0.200024 -1.34091,0.200024 -0.82973,0 -1.2446,-0.414866 -0.40746,-0.422275 -0.40746,-1.311274 0,-0.437092 0.11853,-0.859367 0.11854,-0.429683 0.25189,-0.577849 0.15557,-0.170392 0.60748,-0.288925 0.45932,-0.118534 0.94827,-0.118534 0.51117,0 1.02975,0.0889 -0.0148,0.185209 -0.0519,0.437092 -0.0296,0.244475 -0.0667,0.437091 -0.45932,-0.02963 -0.86677,-0.02963 -0.40005,0 -0.51118,0.04445 -0.0593,0.02223 -0.11112,0.303742 -0.0445,0.281516 -0.0445,0.525991 0,0.325966 0.0889,0.503766 0.0963,0.170392 0.29633,0.237067 0.20002,0.06668 0.54081,0.06668 0.14816,0 0.65193,-0.02963 z m 2.4892,-0.785283 q 0.1852,0 0.68897,-0.03704 0.0667,0 0.24448,-0.01482 l 0.11112,0.763058 q -0.57044,0.2667 -1.48167,0.2667 -0.85195,0 -1.31127,-0.429683 -0.45191,-0.429683 -0.45191,-1.296458 0,-0.4445 0.11113,-0.859366 0.11853,-0.414867 0.2667,-0.57785 0.15557,-0.162983 0.57785,-0.281516 0.42227,-0.118534 0.83714,-0.118534 0.66675,0 1.00012,0.237067 0.33338,0.237067 0.43709,0.659341 0.10372,0.414867 0.10372,1.118658 -0.50377,0.02963 -0.98531,0.02963 h -1.05198 q 0,0.237067 0.0963,0.3556 0.10372,0.118534 0.28892,0.155575 0.18521,0.02963 0.51859,0.02963 z m -0.82974,-1.703916 q -0.0444,0.02222 -0.0667,0.192616 -0.0222,0.170392 -0.0296,0.385233 h 0.38523 q 0.34819,0 0.50376,-0.0074 0,-0.3556 -0.10371,-0.503766 -0.0963,-0.148167 -0.34079,-0.148167 -0.20002,0 -0.34819,0.08149 z m 5.70442,-0.600075 q 0.0667,0.08149 0.0963,0.407458 0.037,0.325967 0.037,0.992716 v 1.792816 h -1.26682 v -1.777999 -0.303742 q 0,-0.237066 -0.037,-0.296333 -0.0593,-0.07408 -0.27411,-0.07408 -0.10372,0 -0.15558,0.0074 -0.20743,0.0074 -0.42968,0.09631 v 2.34844 h -1.26682 v -3.407832 h 1.02975 l 0.14076,0.570442 q 0.5334,-0.644525 1.27423,-0.644525 0.2667,0 0.49636,0.07408 0.23707,0.07408 0.3556,0.214842 z m 2.74849,3.19299 -0.11853,-0.466725 q -0.34078,0.555625 -0.94827,0.555625 -0.49636,0 -0.81491,-0.274108 -0.31115,-0.281517 -0.31115,-0.785283 0,-0.31115 0.1778,-0.540808 0.1852,-0.237067 0.50376,-0.333375 0.41487,-0.118533 1.28164,-0.13335 0,-0.48895 -0.0444,-0.518583 -0.037,-0.02963 -0.23706,-0.02963 -0.12594,0 -0.34819,0.01482 -0.3556,0.01482 -0.96309,0.08149 -0.0593,-0.40005 -0.0889,-0.859366 0.39264,-0.08149 0.82233,-0.13335 0.42968,-0.05927 0.77046,-0.05927 0.59267,0 0.889,0.200025 0.29634,0.192617 0.38524,0.511175 0.0889,0.318558 0.0815,0.807508 l -0.007,1.089024 0.0222,0.874183 z m -0.63711,-0.740833 q 0.19261,0 0.40745,-0.07408 v -0.548217 h -0.0593 q -0.54822,0 -0.60749,0.05927 -0.037,0.03704 -0.0593,0.111125 -0.0148,0.07408 -0.0148,0.140758 0,0.1778 0.0815,0.244475 0.0815,0.06668 0.25189,0.06668 z m 4.35609,-2.741082 q 0.0963,0 0.20002,0.02223 0.11113,0.02223 0.16299,0.05186 0,0.162984 -0.0371,0.540808 -0.037,0.370417 -0.0667,0.525992 -0.0741,-0.0074 -0.27411,-0.0074 -0.46672,0 -0.82973,0.05186 v 2.296582 h -1.26683 v -3.407832 h 1.05939 l 0.14817,0.548217 h 0.007 q 0.21484,-0.281517 0.45932,-0.451908 0.24447,-0.170392 0.43709,-0.170392 z m 1.35572,-0.3481914 q -0.25188,0 -0.43709,-0.1703916 -0.1778,-0.1703916 -0.1778,-0.4074582 0,-0.2370665 0.1778,-0.4074581 0.18521,-0.1703916 0.43709,-0.1703916 0.25188,0 0.42968,0.1703916 0.1778,0.1703916 0.1778,0.4074581 0,0.2370666 -0.1778,0.4074582 -0.1778,0.1703916 -0.42968,0.1703916 z m -0.63712,0.4222744 h 1.26683 v 3.407832 h -1.26683 z m 3.54119,3.50414 q -0.889,0 -1.3335,-0.414866 -0.43709,-0.422275 -0.43709,-1.326091 0,-0.496358 0.0889,-0.866775 0.0963,-0.377825 0.22966,-0.525991 0.17039,-0.192617 0.6223,-0.318558 0.45931,-0.125942 0.85936,-0.125942 0.95568,0 1.36314,0.407458 0.40745,0.407458 0.40745,1.303866 0,0.963083 -0.43709,1.414991 -0.43709,0.451908 -1.36313,0.451908 z m 0.0222,-0.866774 q 0.28892,0 0.37782,-0.200025 0.0889,-0.207433 0.0889,-0.726016 0,-0.363009 -0.037,-0.555625 -0.037,-0.200025 -0.14076,-0.288925 -0.0963,-0.09631 -0.30374,-0.09631 -0.29633,0 -0.34078,0.05186 -0.0593,0.05186 -0.0963,0.325967 -0.037,0.274108 -0.037,0.570441 0,0.503766 0.0963,0.7112 0.10372,0.207433 0.39265,0.207433 z"
       id="text2150"
       aria-label="scenario" />
    <path
       style="font-size:7.40833px;line-height:10%;font-family:Lalezar;-inkscape-font-specification:'Lalezar, Normal';text-align:center;letter-spacing:0px;word-spacing:0px;baseline-shift:baseline;text-anchor:middle;fill:#1f437a;stroke-width:0.264583px"
       d="m 168.14619,17.719649 v 4.496856 h -1.04457 l -0.10372,-0.570441 q -0.14816,0.288925 -0.43709,0.459316 -0.28892,0.170392 -0.65193,0.170392 -0.57785,0 -0.92604,-0.414867 -0.34079,-0.414866 -0.34079,-1.244599 0,-0.629708 0.14817,-1.037166 0.14817,-0.407459 0.34819,-0.585258 0.12594,-0.111125 0.51118,-0.185209 0.39264,-0.07408 0.69638,-0.07408 0.2667,0 0.54822,0.05186 -0.0222,-0.3556 -0.0222,-0.392641 v -0.6223 z m -1.68169,3.563406 q 0.20003,0 0.41487,-0.06667 v -1.607608 q -0.21484,-0.02963 -0.47413,-0.02963 -0.22225,0 -0.28152,0.03704 -0.0815,0.05927 -0.13335,0.340783 -0.0445,0.274109 -0.0445,0.57785 0,0.451908 0.13335,0.600075 0.14076,0.148166 0.38523,0.148166 z m 4.31907,0.93345 -0.11854,-0.466725 q -0.34078,0.555625 -0.94826,0.555625 -0.49636,0 -0.81492,-0.274108 -0.31115,-0.281517 -0.31115,-0.785283 0,-0.31115 0.1778,-0.540808 0.18521,-0.237067 0.50377,-0.333375 0.41486,-0.118533 1.28164,-0.13335 0,-0.48895 -0.0445,-0.518583 -0.037,-0.02963 -0.23707,-0.02963 -0.12594,0 -0.34819,0.01482 -0.3556,0.01482 -0.96308,0.08149 -0.0593,-0.40005 -0.0889,-0.859366 0.39264,-0.08149 0.82232,-0.13335 0.42969,-0.05927 0.77047,-0.05927 0.59267,0 0.889,0.200025 0.29633,0.192616 0.38523,0.511175 0.0889,0.318558 0.0815,0.807508 l -0.007,1.089024 0.0222,0.874183 z m -0.63712,-0.740833 q 0.19262,0 0.40746,-0.07408 v -0.548217 h -0.0593 q -0.54821,0 -0.60748,0.05927 -0.037,0.03704 -0.0593,0.111125 -0.0148,0.07408 -0.0148,0.140758 0,0.1778 0.0815,0.244475 0.0815,0.06668 0.25188,0.06668 z m 3.81528,-0.659341 q 0,0.13335 0.007,0.281516 0.007,0.140758 0.0444,0.1778 0.0519,0.05186 0.36301,0.05186 l 0.25188,-0.0074 q 0.0667,0.3556 0.0667,0.822325 -0.14076,0.05186 -0.41487,0.09631 -0.2667,0.04445 -0.51117,0.04445 -0.51118,0 -0.79269,-0.22225 -0.27411,-0.229658 -0.27411,-0.703791 V 19.53469 h -0.55563 v -0.674158 l 0.55563,-0.05186 0.33337,-0.814916 0.92604,-0.05186 v 0.866774 h 0.78529 v 0.726017 h -0.78529 z m 3.19299,1.400174 -0.11853,-0.466725 q -0.34078,0.555625 -0.94827,0.555625 -0.49636,0 -0.81491,-0.274108 -0.31115,-0.281517 -0.31115,-0.785283 0,-0.31115 0.1778,-0.540808 0.1852,-0.237067 0.50376,-0.333375 0.41487,-0.118533 1.28164,-0.13335 0,-0.48895 -0.0445,-0.518583 -0.037,-0.02963 -0.23706,-0.02963 -0.12594,0 -0.34819,0.01482 -0.3556,0.01482 -0.96309,0.08149 -0.0593,-0.40005 -0.0889,-0.859366 0.39264,-0.08149 0.82233,-0.13335 0.42968,-0.05927 0.77046,-0.05927 0.59267,0 0.889,0.200025 0.29634,0.192616 0.38524,0.511175 0.0889,0.318558 0.0815,0.807508 l -0.007,1.089024 0.0222,0.874183 z m -0.63711,-0.740833 q 0.19261,0 0.40745,-0.07408 v -0.548217 h -0.0593 q -0.54822,0 -0.60749,0.05927 -0.037,0.03704 -0.0593,0.111125 -0.0148,0.07408 -0.0148,0.140758 0,0.1778 0.0815,0.244475 0.0815,0.06668 0.25189,0.06668 z"
       id="text2164"
       aria-label="data" />
    <rect
       ry="3.2396758"
       y="5.2903748"
       x="367.77155"
       height="20.108334"
       width="41.275002"
       id="rect2178"
       style="display:inline;opacity:1;fill:none;fill-opacity:1;stroke:#1f58ad;stroke-width:1.05833;stroke-linecap:round;stroke-linejoin:miter;stroke-miterlimit:4;stroke-dasharray:none;stroke-dashoffset:0;stroke-opacity:1;paint-order:normal;enable-background:new" />
    <path
       d="m 378.08201,17.981781 -0.11853,-0.466725 q -0.34078,0.555625 -0.94827,0.555625 -0.49635,0 -0.81491,-0.274108 -0.31115,-0.281517 -0.31115,-0.785283 0,-0.31115 0.1778,-0.540808 0.18521,-0.237067 0.50376,-0.333375 0.41487,-0.118533 1.28164,-0.13335 0,-0.48895 -0.0444,-0.518583 -0.037,-0.02963 -0.23706,-0.02963 -0.12594,0 -0.34819,0.01482 -0.3556,0.01482 -0.96309,0.08149 -0.0593,-0.40005 -0.0889,-0.859366 0.39265,-0.08149 0.82233,-0.13335 0.42968,-0.05927 0.77046,-0.05927 0.59267,0 0.889,0.200025 0.29634,0.192616 0.38524,0.511175 0.0889,0.318558 0.0815,0.807508 l -0.007,1.089024 0.0222,0.874183 z m -0.63711,-0.740833 q 0.19261,0 0.40745,-0.07408 v -0.548217 h -0.0593 q -0.54822,0 -0.60749,0.05927 -0.037,0.03704 -0.0593,0.111125 -0.0148,0.07408 -0.0148,0.140758 0,0.1778 0.0815,0.244475 0.0815,0.06668 0.25189,0.06668 z m 5.54142,-2.452157 q 0.0667,0.08149 0.0963,0.407458 0.037,0.325966 0.037,0.992716 v 1.792816 H 381.8528 V 16.203782 15.90004 q 0,-0.237066 -0.037,-0.296333 -0.0593,-0.07408 -0.27411,-0.07408 -0.10372,0 -0.15558,0.0074 -0.20743,0.0074 -0.42968,0.09631 v 2.348441 h -1.26683 v -3.407832 h 1.02976 l 0.14076,0.570442 q 0.5334,-0.644525 1.27423,-0.644525 0.2667,0 0.49636,0.07408 0.23707,0.07408 0.3556,0.214842 z m 2.74849,3.19299 -0.11853,-0.466725 q -0.34079,0.555625 -0.94827,0.555625 -0.49636,0 -0.81492,-0.274108 -0.31115,-0.281517 -0.31115,-0.785283 0,-0.31115 0.1778,-0.540808 0.18521,-0.237067 0.50377,-0.333375 0.41487,-0.118533 1.28164,-0.13335 0,-0.48895 -0.0445,-0.518583 -0.037,-0.02963 -0.23706,-0.02963 -0.12595,0 -0.3482,0.01482 -0.3556,0.01482 -0.96308,0.08149 -0.0593,-0.40005 -0.0889,-0.859366 0.39264,-0.08149 0.82233,-0.13335 0.42968,-0.05927 0.77046,-0.05927 0.59267,0 0.889,0.200025 0.29634,0.192616 0.38524,0.511175 0.0889,0.318558 0.0815,0.807508 l -0.007,1.089024 0.0222,0.874183 z m -0.63712,-0.740833 q 0.19262,0 0.40746,-0.07408 v -0.548217 h -0.0593 q -0.54822,0 -0.60749,0.05927 -0.037,0.03704 -0.0593,0.111125 -0.0148,0.07408 -0.0148,0.140758 0,0.1778 0.0815,0.244475 0.0815,0.06668 0.25188,0.06668 z m 2.26695,-3.704165 1.26682,-0.05186 v 4.496856 h -1.26682 z m 5.4229,1.037166 -0.889,2.852207 q -0.25929,0.822325 -0.46672,1.192741 -0.20744,0.377825 -0.41487,0.525992 -0.11853,0.08149 -0.37782,0.125941 -0.25189,0.04445 -0.54822,0.04445 -0.4445,0 -0.7112,-0.08149 -0.007,-0.1778 0.0148,-0.437092 0.0222,-0.251883 0.0593,-0.429683 0.31115,0.01482 0.60749,0.01482 0.22225,0 0.33337,-0.0074 0.11113,-0.214841 0.20743,-0.451908 l -0.51117,-0.02963 -1.14088,-3.318932 h 1.3409 l 0.59267,2.385482 0.007,0.140759 h 0.0222 l 0.5334,-2.526241 z m 3.05224,2.252133 q 0,0.659341 -0.42228,0.948266 -0.41486,0.288925 -1.18533,0.288925 -0.54081,0 -1.2446,-0.155575 0.0148,-0.148167 0.0667,-0.422275 0.0593,-0.281517 0.0963,-0.429683 0.2667,0.04445 0.59266,0.07408 0.32597,0.02223 0.55563,0.02223 0.20002,0 0.24447,-0.02223 0.007,-0.0074 0.0148,-0.03704 0.0148,-0.03704 0.0148,-0.07408 0,-0.148166 -0.1852,-0.200025 -0.0593,-0.01482 -0.45191,-0.125941 -0.39264,-0.111125 -0.64453,-0.40005 -0.24447,-0.296333 -0.24447,-0.733425 0,-0.229658 0.10372,-0.511175 0.10371,-0.281516 0.22225,-0.355599 0.0889,-0.05927 0.42968,-0.118534 0.34078,-0.06668 0.62971,-0.06668 0.61489,0 1.23719,0.0889 0,0.13335 -0.037,0.451908 -0.037,0.31115 -0.0667,0.392642 -0.62971,-0.08149 -1.01494,-0.08149 -0.20003,0 -0.25929,0.02222 -0.0148,0.0074 -0.0296,0.04445 -0.0148,0.02963 -0.0148,0.08149 0,0.103716 0.0667,0.148166 0.0667,0.05186 0.34819,0.125942 0.33338,0.09631 0.57045,0.200025 0.24447,0.103717 0.42227,0.31115 0.18521,0.207433 0.18521,0.5334 z m 1.08162,-2.674408 q -0.25188,0 -0.43709,-0.170391 -0.1778,-0.170392 -0.1778,-0.407458 0,-0.237067 0.1778,-0.407458 0.18521,-0.170392 0.43709,-0.170392 0.25188,0 0.42968,0.170392 0.1778,0.170391 0.1778,0.407458 0,0.237066 -0.1778,0.407458 -0.1778,0.170391 -0.42968,0.170391 z m -0.63712,0.422275 h 1.26683 v 3.407832 h -1.26683 z m 4.65244,2.252133 q 0,0.659341 -0.42227,0.948266 -0.41487,0.288925 -1.18534,0.288925 -0.5408,0 -1.2446,-0.155575 0.0148,-0.148167 0.0667,-0.422275 0.0593,-0.281517 0.0963,-0.429683 0.2667,0.04445 0.59266,0.07408 0.32597,0.02223 0.55563,0.02223 0.20002,0 0.24447,-0.02223 0.007,-0.0074 0.0148,-0.03704 0.0148,-0.03704 0.0148,-0.07408 0,-0.148166 -0.18521,-0.200025 -0.0593,-0.01482 -0.45191,-0.125941 -0.39264,-0.111125 -0.64452,-0.40005 -0.24448,-0.296333 -0.24448,-0.733425 0,-0.229658 0.10372,-0.511175 0.10371,-0.281516 0.22225,-0.355599 0.0889,-0.05927 0.42968,-0.118534 0.34078,-0.06668 0.62971,-0.06668 0.61489,0 1.23719,0.0889 0,0.13335 -0.037,0.451908 -0.037,0.31115 -0.0667,0.392642 -0.6297,-0.08149 -1.01494,-0.08149 -0.20002,0 -0.25929,0.02222 -0.0148,0.0074 -0.0296,0.04445 -0.0148,0.02963 -0.0148,0.08149 0,0.103716 0.0667,0.148166 0.0667,0.05186 0.34819,0.125942 0.33337,0.09631 0.57044,0.200025 0.24447,0.103717 0.42227,0.31115 0.18521,0.207433 0.18521,0.5334 z"
       id="text2182"
       style="font-size:7.40833px;line-height:1000%;font-family:Lalezar;-inkscape-font-specification:'Lalezar, Normal';text-align:center;letter-spacing:0px;word-spacing:0px;baseline-shift:baseline;text-anchor:middle;fill:#1f437a;stroke-width:0.264583px"
       aria-label="analysis" />
  </g>
</svg>
