<?xml version="1.0" standalone="no"?>
<!DOCTYPE svg PUBLIC "-//W3C//DTD SVG 20010904//EN"
 "http://www.w3.org/TR/2001/REC-SVG-20010904/DTD/svg10.dtd">
<svg version="1.0" xmlns="http://www.w3.org/2000/svg"
 width="700.000000pt" height="700.000000pt" viewBox="0 0 700.000000 700.000000"
 preserveAspectRatio="xMidYMid meet">
<metadata>
Created by potrace 1.14, written by Peter Selinger 2001-2017
</metadata>
<g transform="translate(0.000000,700.000000) scale(0.100000,-0.100000)"
fill="#000000" stroke="none">
<path d="M2279 6407 c-3 -5 -7 -83 -13 -232 -4 -88 -8 -200 -11 -250 -4 -81
-9 -203 -20 -485 -5 -111 -15 -348 -20 -470 -2 -47 -7 -155 -10 -240 -3 -85
-8 -186 -10 -225 -2 -38 -6 -151 -10 -250 -4 -99 -8 -197 -9 -217 l-2 -37 405
0 c223 0 424 -3 446 -6 54 -7 115 -23 142 -37 13 -6 25 -9 27 -7 3 2 7 85 10
184 14 432 17 505 21 595 2 52 7 187 10 300 4 113 8 234 10 270 8 188 17 342
20 357 2 10 4 24 4 31 1 6 5 12 10 12 7 0 23 -49 36 -110 2 -8 21 -93 44 -188
22 -96 43 -183 45 -195 2 -12 16 -72 30 -133 14 -62 37 -170 51 -240 14 -71
39 -192 55 -269 16 -77 31 -151 34 -165 2 -14 7 -36 10 -50 5 -24 120 -577
130 -630 3 -14 12 -56 20 -95 8 -38 18 -86 21 -105 4 -19 8 -39 9 -45 2 -5 7
-28 11 -50 5 -22 10 -43 11 -47 1 -5 2 -17 3 -27 1 -20 304 -409 330 -425 9
-6 177 -10 400 -10 381 -1 383 -1 391 20 5 12 27 106 50 210 23 104 43 196 45
204 18 78 185 838 190 863 2 10 6 26 9 35 3 9 7 28 10 42 2 14 29 138 60 277
30 139 57 262 60 275 4 23 55 269 61 298 2 8 13 58 25 110 12 52 24 106 26
120 4 22 61 242 80 308 9 31 29 28 30 -5 1 -26 13 -232 19 -333 2 -25 6 -121
10 -215 14 -364 25 -637 30 -760 2 -49 7 -164 11 -255 3 -91 7 -196 9 -235 2
-38 6 -149 10 -245 3 -96 8 -202 10 -235 2 -33 7 -145 11 -249 3 -103 8 -196
9 -205 2 -9 4 -18 4 -21 1 -4 1001 -5 1022 -1 3 1 4 16 3 34 -1 17 -5 104 -9
192 -3 88 -8 203 -10 255 -2 52 -7 158 -10 235 -3 77 -8 190 -10 250 -3 61 -7
171 -10 245 -3 74 -7 180 -10 235 -11 283 -21 517 -30 755 -3 85 -8 198 -10
250 -2 52 -7 163 -10 245 -3 83 -8 193 -10 245 -7 165 -18 453 -19 500 l-2 45
-894 0 -894 0 -13 -60 c-6 -33 -14 -73 -17 -90 -6 -34 -33 -177 -41 -215 -3
-14 -8 -40 -11 -59 -7 -42 -11 -63 -24 -126 -17 -85 -20 -99 -26 -134 -3 -18
-8 -43 -10 -55 -6 -29 -94 -495 -100 -526 -2 -14 -9 -47 -14 -75 -5 -27 -12
-63 -15 -80 -11 -70 -66 -338 -70 -345 -2 -4 -7 -20 -10 -36 -3 -16 -9 -45
-14 -64 -8 -33 -8 -34 -14 -10 -3 14 -11 50 -16 80 -6 30 -13 69 -16 85 -3 17
-10 53 -15 80 -18 103 -21 121 -30 160 -5 22 -12 56 -15 75 -3 19 -14 78 -25
130 -11 52 -21 106 -24 120 -2 14 -14 72 -26 130 -12 58 -24 116 -26 130 -3
14 -28 140 -56 280 -27 140 -52 264 -54 275 -2 11 -6 31 -9 45 -3 14 -7 36
-10 50 -3 14 -12 61 -21 105 -9 44 -18 87 -19 95 -2 8 -4 20 -4 27 -1 10 -197
12 -876 12 -481 0 -876 -1 -876 -2z"/>
<path d="M1409 3706 c-3 -3 -20 -8 -39 -11 -187 -31 -378 -175 -468 -352 -17
-32 -282 -694 -315 -785 -3 -9 -28 -28 -56 -42 -108 -55 -208 -190 -231 -314
-5 -29 -10 -245 -10 -490 0 -437 0 -437 24 -487 23 -52 69 -98 115 -118 14 -6
93 -14 175 -17 l149 -5 17 -65 c63 -236 248 -416 491 -480 101 -26 266 -22
358 10 226 76 382 233 449 453 l27 87 459 -2 459 -3 13 -55 c8 -30 33 -93 56
-140 34 -68 60 -102 128 -170 134 -133 264 -189 450 -195 195 -6 358 57 494
191 86 86 138 171 174 287 l27 87 130 0 c72 0 145 4 164 10 59 17 109 59 137
116 26 53 26 54 25 296 0 254 -9 326 -52 451 -102 299 -361 525 -676 589 l-62
13 -356 450 c-197 248 -376 469 -399 493 -62 65 -168 132 -265 166 l-86 31
-751 3 c-413 1 -752 0 -755 -2z m456 -455 c6 -1 10 -120 9 -338 l0 -338 -398
-3 c-377 -2 -398 -1 -392 15 16 41 79 200 91 228 7 17 36 91 65 165 80 202
123 254 227 268 36 6 352 8 398 3z m1019 -21 c50 -24 44 -17 429 -502 64 -82
117 -150 117 -153 0 -3 -274 -5 -609 -5 l-608 0 0 339 -1 340 27 3 c14 2 155
3 312 2 277 -1 287 -1 333 -24z m-1382 -1695 c228 -50 332 -341 191 -532 -93
-126 -253 -172 -396 -116 -159 63 -249 250 -198 413 39 123 126 206 247 233
60 14 98 14 156 2z m2320 -16 c64 -33 97 -60 132 -109 51 -71 61 -106 61 -205
0 -77 -4 -98 -27 -147 -32 -69 -96 -135 -163 -168 -42 -21 -64 -25 -145 -25
-80 0 -103 4 -143 24 -66 33 -128 96 -163 166 -25 52 -29 71 -28 140 1 168 95
296 249 342 58 18 176 8 227 -18z"/>
</g>
</svg>
