<svg width="48" height="48" viewBox="0 0 48 48" fill="none" xmlns="http://www.w3.org/2000/svg">
<path d="M10.2973 25.6875H12.85V30.375H7.39109L8.86359 26.6689C9.09609 26.0781 9.66281 25.6875 10.2973 25.6875ZM15.175 30.375V25.6875H19.1081C19.578 25.6875 20.0236 25.9023 20.3191 26.2734L23.5741 30.375H15.175ZM27.5847 30.4238L22.7409 24.3203C21.8594 23.207 20.5225 22.5625 19.1081 22.5625H10.2973C8.39375 22.5625 6.68391 23.7295 5.98156 25.5068L3.96656 30.5898C2.81375 31.0488 2 32.1768 2 33.5V38.9688C2 39.833 2.69266 40.5312 3.55 40.5312H5.16297C5.53109 42.748 7.44437 44.4375 9.75 44.4375C12.0556 44.4375 13.9689 42.748 14.337 40.5312H20.663C21.0311 42.748 22.9444 44.4375 25.25 44.4375C27.5556 44.4375 29.4689 42.748 29.837 40.5312H31.45C32.3073 40.5312 33 39.833 33 38.9688V36.625C33 33.4414 30.6362 30.8145 27.5847 30.4238ZM23.0558 38.9688C23.1545 38.6746 23.3101 38.4032 23.5137 38.1702C23.7174 37.9372 23.9649 37.7473 24.2419 37.6116C24.5189 37.4759 24.82 37.397 25.1275 37.3795C25.435 37.362 25.7429 37.4064 26.0333 37.5099C26.3237 37.6134 26.5908 37.774 26.8191 37.9825C27.0474 38.1909 27.2323 38.443 27.3632 38.7241C27.494 39.0053 27.5681 39.3098 27.5812 39.62C27.5942 39.9302 27.546 40.24 27.4394 40.5312C27.3407 40.8254 27.185 41.0968 26.9814 41.3298C26.7778 41.5628 26.5303 41.7527 26.2533 41.8884C25.9762 42.0241 25.6752 42.103 25.3677 42.1205C25.0601 42.138 24.7522 42.0936 24.4618 41.9901C24.1714 41.8866 23.9043 41.726 23.676 41.5175C23.4477 41.3091 23.2628 41.057 23.132 40.7759C23.0012 40.4947 22.9271 40.1902 22.914 39.88C22.9009 39.5698 22.9491 39.26 23.0558 38.9688ZM9.75 37.4062C10.3666 37.4062 10.958 37.6532 11.394 38.0927C11.83 38.5323 12.075 39.1284 12.075 39.75C12.075 40.3716 11.83 40.9677 11.394 41.4073C10.958 41.8468 10.3666 42.0938 9.75 42.0938C9.13337 42.0938 8.542 41.8468 8.10598 41.4073C7.66995 40.9677 7.425 40.3716 7.425 39.75C7.425 39.1284 7.66995 38.5323 8.10598 38.0927C8.542 37.6532 9.13337 37.4062 9.75 37.4062Z" fill="#0B54C1"/>
<path fill-rule="evenodd" clip-rule="evenodd" d="M38.914 28.0001H45.97L45.004 4.06006H32.74L30.808 14.2661C30.612 15.3301 30.402 16.2961 30.178 17.1641L29.674 14.3921L27.616 4.06006H15.604L14.9091 20.5626H20.1081C20.7422 20.5626 21.3606 20.6921 21.9295 20.9353L22.072 16.6601C22.072 16.2401 22.086 15.9321 22.114 15.7361C22.198 12.5721 22.296 10.2901 22.408 8.89006H22.534C22.758 9.75806 23.164 11.4941 23.752 14.0981L24.172 16.1981L26.0314 25.2065L28.2483 28.0001H33.664L36.562 14.8961L36.772 13.8461C37.22 11.6061 37.612 9.95406 37.948 8.89006H38.074C38.186 10.2341 38.284 12.2081 38.368 14.8121L38.914 28.0001Z" fill="#0B54C1"/>
</svg>
