<?xml version="1.0" encoding="UTF-8"?>
<svg xmlns="http://www.w3.org/2000/svg" viewBox="0 0 435.8811 329.9414">
  <g id="BVG_Herz" data-name="BVG Herz">
    <path d="m217.9391,35.7144C236.1329,16.7627,252.171,0,279.9376,0c43.0957,0,76.5029,34.1226,79.4775,76.0986,1.8526,26.1689-6.2441,47.4735-25.4873,67.0458-31.9697,32.5088-89.4414,90.7323-108.874,110.411-.8652.8672-3.9346,3.6943-7.1147,3.6943-3.1778,0-6.2476-2.8271-7.1114-3.6943-19.4336-19.6787-76.9052-77.9022-108.8764-110.411-19.2412-19.5723-27.3389-40.877-25.4854-67.0458C79.4405,34.1226,112.8477,0,155.941,0c27.7676,0,43.8067,16.7627,61.9981,35.7144Z" fill="#f0d722" stroke-width="0"/>
    <path d="m171.3243,141.8193h-11.7026c-2.9253,0-5.1201-.9766-5.1201-4.3877v-55.5918c0-2.6836,2.1948-4.876,5.1201-4.876h12.6772c15.3614,0,17.5572,7.8013,17.5572,16.335,0,6.8266-2.1958,12.9218-10.729,14.6269,9.2656.4917,12.437,7.8037,12.437,14.3887,0,10.2402-3.6597,19.5049-20.2398,19.5049Zm-.9726-56.0777h-3.6597v18.2857h2.9234c8.2934,0,8.5371-5.1201,8.5371-9.2657,0-6.582-.9766-9.02-7.8008-9.02Zm-.2461,26.8179h-3.4136v20.4834h4.3867c7.0738,0,7.8028-4.8765,7.8028-10.2417,0-5.8521-.729-10.2417-8.7759-10.2417Zm56.81,21.9453c-1.2207,5.3643-4.1455,8.044-9.0234,8.044-5.604,0-8.0425-2.6797-9.2632-7.5567l-11.9468-49.4941c-1.2177-4.877.9756-9.022,5.6075-9.022,2.9253,0,5.4863,1.4634,6.3393,5.6069l7.8023,36.5733c.7324,3.4135,1.2221,7.5586,1.4609,10.2402.2481-2.6816.855-6.8267,1.4649-10.2402l7.0703-36.5733c.7304-3.6552,2.9257-5.6069,6.0957-5.6069,3.9004,0,6.705,3.1704,5.6093,8.2891l-11.2168,49.7397Zm39.7422,8.044c-19.2597,0-23.6504-10.7256-23.6504-32.9131,0-23.4073,9.754-33.4038,24.8692-33.4038,3.1719,0,10.4863.7319,14.1406,3.6577.7334.7314,1.707,1.9502,1.707,3.9004,0,2.9248-2.4375,5.1215-5.1191,5.1215s-5.3633-1.9516-10.9707-1.9516c-7.3145,0-12.1934,4.3887-12.1934,23.6509,0,18.0424,4.1485,22.188,12.6797,22.188,2.1953,0,3.4141-.2442,4.1465-.4874v-18.7753h-3.6582c-3.1699,0-5.1221-1.7071-5.1221-4.6338,0-3.1685,1.708-4.875,5.1221-4.875h10.7275c3.6592,0,4.876,1.7065,4.876,5.6084v19.2607c0,9.5108-5.6074,13.6524-17.5547,13.6524Z" fill="#252525" stroke-width="0"/>
  </g>
  <g id="Claim">
    <path d="m432.8741,329.9398c-1.6608,0-3.0115-1.3462-3.0115-2.9995s1.3507-2.9988,3.0115-2.9988c1.6587,0,3.0071,1.3454,3.0071,2.9988s-1.3484,2.9995-3.0071,2.9995Zm-187.3137,0c-2.2836.0316-4.3284-.4079-6.0757-1.1283-1.7413-.7174-3.2392-1.7939-4.4516-3.2001-2.4902-2.7855-3.753-6.5881-3.753-11.3041.0278-4.6282,1.289-8.3789,3.7515-11.1486,1.2125-1.3867,2.6983-2.4444,4.4186-3.1445,1.7278-.7024,3.7402-1.0652,5.9855-1.0802,1.567,0,2.9297.1495,4.0482.4418l.003.0015.0045.0008c.9998.2306,1.7751.48,2.3084.7429l-.1908,4.6755c-.6205-.3508-1.3747-.6678-2.2438-.9465-1.0464-.3343-2.1972-.5041-3.4195-.5041-5.7505.0744-8.738,3.6591-8.883,10.6581,0,3.3721.7798,6.1268,2.3212,8.1895,1.5385,2.1252,3.8559,3.2189,6.881,3.2482,1.256,0,2.4159-.1855,3.4511-.5491l-.0075.0015c.797-.2569,1.4768-.5439,2.0252-.8534l.1525,4.8715c-2.1913.6543-4.3179.9991-6.3259,1.0276Zm170.915-.4297l-9.997-23.1633h-.2509v23.1633h-4.9482v-30.127h6.7901l10.0827,23.1663h.2058v-23.1663h4.9489v30.127h-6.8314Zm-38.2768,0v-30.127h16.0487v4.1992h-10.5664v8.2955h10.0511v4.1969h-10.0511v9.2383h11.1448v4.197h-16.6271Zm-15.6385,0h-9.3269v-30.127h9.4576c2.9673.0571,5.2172.6978,6.6805,1.9058,1.4476,1.1936,2.1732,2.9935,2.1597,5.3463-.027,1.9704-.5265,3.5246-1.4844,4.6168-.96,1.1291-2.216,1.9021-3.7327,2.3025l-.8556.1938v.1961l.8767.1795c1.8591.3095,3.2835,1.0622,4.2315,2.2363.9541,1.1794,1.4664,2.8268,1.5205,4.8978.0654,2.3986-.5619,4.3044-1.8645,5.6671-1.5821,1.6541-4.1602,2.5233-7.6623,2.5849Zm-3.9302-3.9401h3.013c1.6925,0,2.9801-.4665,3.8259-1.386.8241-.8721,1.2425-2.0109,1.2425-3.3826,0-1.4258-.3884-2.5992-1.1538-3.4841-.7902-.8827-1.9764-1.3289-3.5276-1.3289h-3.3999v9.5816Zm0-13.4788s2.3137.0008,2.3632.0008c1.6572,0,2.9327-.3808,3.7906-1.1328.8668-.7587,1.3205-1.9012,1.3514-3.3962.027-1.398-.3704-2.4789-1.1824-3.2152-.7955-.7212-1.9869-1.1012-3.5419-1.1305h-2.7809v8.8739Zm-28.4788,17.4189v-30.127h16.0479v4.1992h-10.5634v8.2955h10.0503v4.1969h-10.0503v9.2383h11.1425v4.197h-16.6271Zm-34.8325,0v-30.127h5.5678v25.8436h10.0955v4.2834h-15.6633Zm-23.0078,0v-13.3496h-9.0445v13.3496h-5.5679v-30.127h5.5679v12.4084h9.0445v-12.4084h5.5709v30.127h-5.5709Zm-73.8342,0h-7.4204v-30.127h9.0099c4.4817.0849,7.9027,1.3627,10.1615,3.8003,2.2648,2.4422,3.4398,6.1283,3.4968,10.9563.0586,5.0203-1.1974,8.8597-3.7357,11.41-2.5309,2.5428-6.404,3.8762-11.5122,3.9603Zm-1.8525-4.1106h2.3047c5.8955-.0879,8.8972-3.8334,8.9258-11.1335.0151-3.7222-.8782-6.5152-2.6577-8.3008-1.5761-1.5821-3.8545-2.3828-6.7714-2.3828h-1.8014v21.8172Zm-26.3852,4.1106l-2.859-9.339.0015.0075c-.3906-1.4265-.9345-2.3745-1.6586-2.9004l-.0075-.0045-.0075-.006c-.7084-.4365-1.6256-.6573-2.7238-.6573h-1.3394v12.8997h-5.5702v-30.127h9.8032c1.7766,0,3.255.2126,4.3945.6295,1.1238.4252,2.0342,1.0073,2.7058,1.73,1.265,1.5024,1.893,3.3496,1.866,5.4898-.0436,1.8961-.5454,3.4382-1.4964,4.5808-.9525,1.1441-2.3866,1.9313-4.2638,2.3378l-.8662.1885v.2388l.8662.1871c.8444.1735,1.5347.5522,2.053,1.1238.5296.5852,1.0329,1.5993,1.4912,3.0161l3.451,10.6047h-5.8398Zm-8.768-16.9681h2.9507c1.5685-.0301,2.769-.4981,3.5698-1.3898.7948-.8714,1.1989-1.9351,1.1989-3.1648,0-1.4897-.4147-2.636-1.2305-3.406-.8068-.7625-2.0118-1.1568-3.5802-1.1718h-2.9087v9.1324Zm-84.7971,16.9681v-30.127h5.5694v25.8436h10.0932v4.2834h-15.6625Zm-13.5716.0019v-30.1307h5.5701v30.1307h-5.5701Zm79.4017-.0019v-30.127h5.5686v30.127h-5.5686Zm77.3235,0v-30.127h5.5701v30.127h-5.5701Zm96.7533,0v-30.127h5.5694v30.127h-5.5694Zm-276.5415,0v-30.127h16.0487v4.1992h-10.5649v8.2955h10.0495v4.1969h-10.0495v9.2383h11.1425v4.197h-16.6263Zm-17.5271,0l-4.6244-25.2134h-.2096l-4.7108,25.2134h-6.7052l-6.262-30.127h5.4244l4.2586,23.7493h.2088l4.4524-23.7493h6.8742l4.5388,23.7493h.2058l4.5387-23.7493h4.828l-6.0299,30.127h-6.7878Zm101.9201,0l-4.6236-25.2134h-.2096l-4.7085,25.2134h-6.7082l-6.2612-30.127h5.4244l4.2593,23.7493h.2104l4.4501-23.7493h6.875l4.5388,23.7493h.2074l4.5372-23.7493h4.8272l-6.0292,30.127h-6.7894Z" fill="#252525" stroke-width="0"/>
  </g>
</svg>